HIERARCHY
ROOT joint_Root
{
	OFFSET 0.0 0.0 0.0
	CHANNELS 6 Xposition Yposition Zposition Zrotation Xrotation Yrotation 
	JOINT Hips
	{
		OFFSET -17.1583 93.1646 452.98
		CHANNELS 6 Xposition Yposition Zposition Zrotation Xrotation Yrotation 
		JOINT Spine
		{
			OFFSET 15.7357 0.0 0.0
			CHANNELS 6 Xposition Yposition Zposition Zrotation Xrotation Yrotation 
			JOINT Chest
			{
				OFFSET 8.98455 -0.406207 0.0
				CHANNELS 6 Xposition Yposition Zposition Zrotation Xrotation Yrotation 
				JOINT Neck
				{
					OFFSET 16.3773 0.0 0.0
					CHANNELS 6 Xposition Yposition Zposition Zrotation Xrotation Yrotation 
					JOINT Head
					{
						OFFSET 6.45672 0.0 0.0
						CHANNELS 6 Xposition Yposition Zposition Zrotation Xrotation Yrotation 
						End Site
						{
							OFFSET 0.0 0.0 0.0
						}
					}
				}
				JOINT Shoulder_L
				{
					OFFSET 12.9942 -0.242716 4.98039
					CHANNELS 6 Xposition Yposition Zposition Zrotation Xrotation Yrotation 
					JOINT UpperArm_L
					{
						OFFSET 5.34809 0.0 0.0
						CHANNELS 6 Xposition Yposition Zposition Zrotation Xrotation Yrotation 
						JOINT LowerArm_L
						{
							OFFSET 24.3286 1.87007e-05 0.0
							CHANNELS 6 Xposition Yposition Zposition Zrotation Xrotation Yrotation 
							JOINT Hand_L
							{
								OFFSET 22.2916 0.0 0.0
								CHANNELS 6 Xposition Yposition Zposition Zrotation Xrotation Yrotation 
								End Site
								{
									OFFSET 0.0 0.0 0.0
								}
							}
						}
					}
				}
				JOINT Shoulder_R
				{
					OFFSET 12.9945 -0.242716 -4.98039
					CHANNELS 6 Xposition Yposition Zposition Zrotation Xrotation Yrotation 
					JOINT UpperArm_R
					{
						OFFSET -5.34813 0.0 0.0
						CHANNELS 6 Xposition Yposition Zposition Zrotation Xrotation Yrotation 
						JOINT LowerArm_R
						{
							OFFSET -24.3289 0.000322201 0.0
							CHANNELS 6 Xposition Yposition Zposition Zrotation Xrotation Yrotation 
							JOINT Hand_R
							{
								OFFSET -22.2915 -0.000108084 0.0
								CHANNELS 6 Xposition Yposition Zposition Zrotation Xrotation Yrotation 
								End Site
								{
									OFFSET 0.0 0.0 0.0
								}
							}
						}
					}
				}
			}
		}
		JOINT UpperLeg_L
		{
			OFFSET -2.19248 -6.46944 0.0
			CHANNELS 6 Xposition Yposition Zposition Zrotation Xrotation Yrotation 
			JOINT LowerLeg_L
			{
				OFFSET 39.0811 0.0 -1.23785e-05
				CHANNELS 6 Xposition Yposition Zposition Zrotation Xrotation Yrotation 
				JOINT Foot_L
				{
					OFFSET 40.9854 0.0 -1.26872e-05
					CHANNELS 6 Xposition Yposition Zposition Zrotation Xrotation Yrotation 
					JOINT Toes_L
					{
						OFFSET 11.7543 0.0 0.0
						CHANNELS 6 Xposition Yposition Zposition Zrotation Xrotation Yrotation 
						End Site
						{
							OFFSET 0.0 0.0 0.0
						}
					}
				}
			}
		}
		JOINT UpperLeg_R
		{
			OFFSET -2.19251 6.46944 0.0
			CHANNELS 6 Xposition Yposition Zposition Zrotation Xrotation Yrotation 
			JOINT LowerLeg_R
			{
				OFFSET -39.0811 -0.00228153 -0.0401928
				CHANNELS 6 Xposition Yposition Zposition Zrotation Xrotation Yrotation 
				JOINT Foot_R
				{
					OFFSET -40.9854 0.0 0.0
					CHANNELS 6 Xposition Yposition Zposition Zrotation Xrotation Yrotation 
					JOINT Toes_R
					{
						OFFSET -11.7543 0.0 0.0
						CHANNELS 6 Xposition Yposition Zposition Zrotation Xrotation Yrotation 
						End Site
						{
							OFFSET 0.0 0.0 0.0
						}
					}
				}
			}
		}
	}
}
MOTION
Frames:	4
Frame Time:	0.0333333
0.000000 0.000000 0.000000 0.000000 0.000000 -0.000000 -3.373840 91.458400 1.209410 82.638000 -2.418190 2.340940 15.735700 0.000005 -0.000001 93.803700 87.917700 -90.768000 8.984550 -0.406207 -0.000000 -3.602760 -0.024811 6.072490 16.377300 -0.000001 -0.000001 10.593700 2.435350 -7.324000 6.456720 -0.000001 -0.000000 7.340540 -0.096186 -19.462300 12.994200 -0.242716 4.980390 -93.002500 8.154100 -69.705400 5.348090 -0.000007 -0.000001 -73.436400 4.974610 -1.163490 24.328600 0.000019 0.000005 42.011500 -44.323100 -127.800000 22.291600 -0.000001 0.000005 45.979600 4.845740 10.443200 12.994500 -0.242716 -4.980390 88.403400 4.746970 -71.385900 -5.348130 -0.000001 -0.000004 -71.618400 30.245600 -2.865530 -24.328900 0.000322 -0.000009 2.216400 7.517790 -16.486400 -22.291500 -0.000108 -0.000004 1.694110 5.250010 1.432490 -2.192480 -6.469440 -0.000000 -170.368000 0.963995 -4.818280 39.081100 -0.000007 -0.000012 0.471474 -0.805448 30.344200 40.985400 -0.000006 -0.000013 0.830580 7.034010 -78.860800 11.754300 -0.000000 0.000003 -0.000180 0.170606 -9.656950 -2.192510 6.469440 -0.000001 -168.284000 6.166050 -176.974000 -39.081100 -0.002282 -0.040193 0.124351 -0.425814 15.866000 -40.985400 0.000008 0.000006 5.027450 0.957491 -72.326100 -11.754300 -0.000006 -0.000006 -0.012498 0.289106 -4.822270
0.000000 0.000000 0.000000 0.000000 0.000000 -0.000000 -3.306070 91.467500 1.183900 82.644800 -2.430950 2.351670 15.735700 0.000005 -0.000001 93.532800 87.914400 -90.494700 8.984550 -0.406207 -0.000000 -3.594410 -0.044075 6.076880 16.377300 -0.000001 -0.000001 10.610600 2.398960 -7.218170 6.456720 -0.000001 -0.000000 7.285740 -0.053814 -19.403800 12.994200 -0.242716 4.980390 -93.006700 8.158940 -69.690300 5.348090 -0.000007 -0.000001 -73.429700 4.942680 -1.217960 24.328600 0.000019 0.000005 41.936200 -44.237700 -127.831000 22.291600 -0.000001 0.000005 46.001500 4.843820 10.480400 12.994500 -0.242716 -4.980390 88.392100 4.779180 -71.380400 -5.348130 -0.000001 -0.000004 -71.628500 30.193500 -2.892480 -24.328900 0.000322 -0.000009 2.233190 7.573130 -16.490500 -22.291500 -0.000108 -0.000004 1.686520 5.251820 1.384580 -2.192480 -6.469440 -0.000000 -170.420000 0.922201 -4.810010 39.081100 -0.000007 -0.000012 0.469211 -0.802300 30.321800 40.985400 -0.000006 -0.000013 0.865913 6.998980 -78.832000 11.754300 -0.000000 0.000003 -0.000073 0.168853 -9.728180 -2.192510 6.469440 -0.000001 -168.363000 6.222890 -176.994000 -39.081100 -0.002282 -0.040193 0.122742 -0.418936 15.909800 -40.985400 0.000008 0.000006 4.928790 1.081670 -72.328800 -11.754300 -0.000006 -0.000006 -0.012268 0.287538 -4.886510
0.000000 0.000000 0.000000 0.000000 0.000000 -0.000000 -3.233720 91.469400 1.155810 82.646600 -2.464660 2.370470 15.735700 0.000005 -0.000001 93.584000 87.911800 -90.536100 8.984550 -0.406207 -0.000000 -3.589470 -0.040866 6.096420 16.377300 -0.000001 -0.000001 10.639400 2.386800 -7.171370 6.456720 -0.000001 -0.000000 7.210490 -0.052722 -19.274600 12.994200 -0.242716 4.980390 -93.016700 8.190470 -69.700000 5.348090 -0.000007 -0.000001 -73.425000 4.800500 -1.211700 24.328600 0.000019 0.000005 41.673600 -44.057700 -127.997000 22.291600 -0.000001 0.000005 45.792800 4.854640 10.270700 12.994500 -0.242716 -4.980390 88.387300 4.787280 -71.357900 -5.348130 -0.000001 -0.000004 -71.616200 30.267600 -2.918390 -24.328900 0.000322 -0.000009 2.232780 7.556160 -16.522400 -22.291500 -0.000108 -0.000004 1.798470 5.249410 1.448360 -2.192480 -6.469440 -0.000000 -170.473000 0.874946 -4.825660 39.081100 -0.000007 -0.000012 0.471978 -0.806044 30.352400 40.985400 -0.000006 -0.000013 0.914512 6.988150 -78.824600 11.754300 -0.000000 0.000003 -0.000169 0.170422 -9.664430 -2.192510 6.469440 -0.000001 -168.394000 6.174820 -177.022000 -39.081100 -0.002282 -0.040193 0.126530 -0.430689 15.963700 -40.985400 0.000008 0.000006 4.984470 1.010420 -72.370800 -11.754300 -0.000006 -0.000006 -0.012600 0.289802 -4.793770
0.000000 0.000000 0.000000 0.000000 0.000000 -0.000000 -3.165450 91.477000 1.143270 82.624700 -2.486860 2.408730 15.735700 0.000005 -0.000001 93.126400 87.901800 -90.064100 8.984550 -0.406207 -0.000000 -3.566610 -0.073863 6.124020 16.377300 -0.000001 -0.000001 10.686600 2.366290 -7.114660 6.456720 -0.000001 -0.000000 7.183080 -0.020479 -19.101100 12.994200 -0.242716 4.980390 -93.017000 8.197020 -69.712600 5.348090 -0.000007 -0.000001 -73.457500 4.693790 -1.209230 24.328600 0.000019 0.000005 41.731400 -44.035700 -127.930000 22.291600 -0.000001 0.000005 45.806700 4.850680 10.347600 12.994500 -0.242716 -4.980390 88.385900 4.798550 -71.383400 -5.348130 -0.000001 -0.000004 -71.614400 30.234600 -2.949190 -24.328900 0.000322 -0.000009 2.224780 7.533840 -16.512200 -22.291500 -0.000108 -0.000004 1.803900 5.250160 1.428630 -2.192480 -6.469440 -0.000000 -170.496000 0.871862 -4.788540 39.081100 -0.000007 -0.000012 0.469205 -0.801520 30.345800 40.985400 -0.000006 -0.000013 0.951467 6.958380 -78.817700 11.754300 -0.000000 0.000003 -0.000157 0.170228 -9.672330 -2.192510 6.469440 -0.000001 -168.411000 6.060640 -176.991000 -39.081100 -0.002282 -0.040193 0.125600 -0.427685 15.955000 -40.985400 0.000008 0.000006 4.941310 0.968532 -72.325400 -11.754300 -0.000006 -0.000006 -0.012503 0.289143 -4.820770
